<svg xmlns="http://www.w3.org/2000/svg" viewBox="0 0 28.99 23.01"><defs><style>.cls-1{fill:#f1f1f0;}</style></defs><title>Recurso 2</title><g id="Capa_2" data-name="Capa 2"><g id="Capa_1-2" data-name="Capa 1"><path class="cls-1" d="M29,13.09a2.51,2.51,0,0,0-1.37-2.25,7.27,7.27,0,0,0-3.31-.66H9.76a3,3,0,0,0-.69-1.39L7,6.5a3,3,0,0,0-2.07-1l-.37,0A1.52,1.52,0,0,0,4,5.58V4.36a1.5,1.5,0,0,0-.47-1.08A2,2,0,0,0,4,2,2,2,0,0,0,0,2,2,2,0,0,0,.46,3.28,1.53,1.53,0,0,0,0,4.36V22.44A.57.57,0,0,0,.57,23h2a.57.57,0,0,0,.56-.52,6.62,6.62,0,0,1,1.38-3.55H6a.57.57,0,0,0,0-1.13H1.13v-5H8.69V14.3a1.58,1.58,0,0,0,1.58,1.58H27.41a1.74,1.74,0,0,0,.45-.06v2H11a.57.57,0,0,0,0,1.13H24.53a6.62,6.62,0,0,1,1.38,3.55.57.57,0,0,0,.56.52h2a.57.57,0,0,0,.56-.57ZM4,7.43c0-.24,0-.49.17-.67s.44-.12.68-.1a1.88,1.88,0,0,1,1.31.6L8.23,9.55A1.88,1.88,0,0,1,8.68,11a.67.67,0,0,1-.19.56.7.7,0,0,1-.56.11,1.9,1.9,0,0,1-1.4-.6L4.46,8.79A1.92,1.92,0,0,1,4,7.43M1.13,11.69V4.36A.36.36,0,0,1,1.49,4h1a.35.35,0,0,1,.35.35v7.33ZM4,10l1.54,1.72H4ZM2,1.13A.87.87,0,1,1,1.13,2,.87.87,0,0,1,2,1.13M2,21.87h-.9V18.94H3a8.67,8.67,0,0,0-1,2.93m8.24-7.12a.45.45,0,0,1-.45-.45v-3H24.31a6.2,6.2,0,0,1,2.8.54,1.39,1.39,0,0,1,.75,1.24V14.3h0a.45.45,0,0,1-.45.45ZM27,21.87a8.67,8.67,0,0,0-1-2.93h1.9v2.93Z"/><path class="cls-1" d="M9,18.16a.56.56,0,1,0-.3.74.57.57,0,0,0,.3-.74"/></g></g></svg>