<svg id="Capa_1" data-name="Capa 1" xmlns="http://www.w3.org/2000/svg" viewBox="0 0 503.08 200.33"><defs><style>.cls-1{fill:#f3f3f2;}.cls-2{fill:#ef4a23;}</style></defs><path class="cls-1" d="M24,162a15,15,0,1,0,0,30,18.06,18.06,0,0,0,12.25-5.29l5.1,5.68a25.76,25.76,0,0,1-17.8,7.74c-13.29,0-23.54-10-23.54-23s10.38-22.77,23.86-22.77a25.08,25.08,0,0,1,17.41,7.23l-5,6.31A16.93,16.93,0,0,0,24,162Z"/><path class="cls-1" d="M80.68,190.15H58.62l-4,9.54h-9l19.8-45.14h9L94,199.69H84.67Zm-3.1-7.42-7.87-19-8,19Z"/><path class="cls-1" d="M117.18,162c-4.06,0-6.71,1.48-6.71,4.26,0,9.15,24.25,4.19,24.18,20.37,0,8.45-7.35,13.35-17.28,13.35a29.34,29.34,0,0,1-19.09-7.22l3.61-7.29c4.65,4.13,10.77,6.65,15.61,6.65s7.74-1.81,7.74-5c0-9.42-24.25-4.06-24.25-20.12,0-7.87,6.77-12.9,16.9-12.9a30.7,30.7,0,0,1,16.31,4.78l-3.48,7.48C125.88,163.51,120.66,162,117.18,162Z"/><path class="cls-1" d="M175.15,190.15H153.1l-4,9.54h-9l19.79-45.14h9l19.54,45.14h-9.29Zm-3.09-7.42-7.87-19-8,19Z"/><path class="cls-1" d="M255.31,165.84a9.9,9.9,0,0,1-7.86,10c6,1.1,9.6,5.42,9.6,11.42,0,7.73-6.38,12.44-16.7,12.44H219.72V154.55h20.05C249.38,154.55,255.31,158.87,255.31,165.84Zm-8.83,1.54c0-3.41-2.71-5.41-7.16-5.35h-11v11h11C243.77,173,246.48,170.93,246.48,167.38Zm1.61,18.77c0-3.68-3.29-5.93-8.77-5.87h-11v11.93h11C244.8,192.27,248.09,190,248.09,186.15Z"/><path class="cls-1" d="M277.31,154.55v37.34h19.47v7.8H268.66V154.55Z"/><path class="cls-1" d="M336.51,190.15H314.45l-4,9.54h-9l19.8-45.14h9l19.54,45.14H340.5Zm-3.1-7.42-7.87-19-8,19Z"/><path class="cls-1" d="M366.69,154.55,390,185.44V154.55h8.38v45.14h-8.19l-23.22-30.82v30.82H358.5V154.55Z"/><path class="cls-1" d="M433.11,162a15,15,0,1,0,0,30,18.06,18.06,0,0,0,12.25-5.29l5.1,5.68a25.76,25.76,0,0,1-17.8,7.74c-13.29,0-23.54-10-23.54-23S419.5,154.29,433,154.29a25.08,25.08,0,0,1,17.41,7.23l-5,6.31A16.93,16.93,0,0,0,433.11,162Z"/><path class="cls-1" d="M489.8,190.15H467.74l-4,9.54h-9l19.8-45.14h9l19.54,45.14h-9.29Zm-3.1-7.42-7.87-19-8,19Z"/><polygon class="cls-2" points="327.32 120.16 175.76 120.16 175.76 33.87 229.18 0 260.93 20.53 257.76 25.44 229.15 6.93 181.6 37.08 181.6 114.32 321.48 114.32 321.48 61.86 276.56 35.25 234.16 61.81 234.16 95.72 269.44 95.72 269.44 59.21 275.28 59.21 275.28 101.56 228.32 101.56 228.32 58.58 276.48 28.41 327.32 58.53 327.32 120.16"/></svg>