<svg xmlns="http://www.w3.org/2000/svg" viewBox="0 0 20.59 22.91"><defs><style>.cls-1{fill:#f1f1f0;}</style></defs><title>Recurso 5</title><g id="Capa_2" data-name="Capa 2"><g id="Capa_1-2" data-name="Capa 1"><path class="cls-1" d="M9.4,19.34h2.68a.45.45,0,0,0,.45-.45v-4.3h5.82a.45.45,0,0,0,.45-.45V7.61a.45.45,0,0,0-.45-.45H4.92a.45.45,0,0,0-.44.45V18.89a.45.45,0,0,0,.44.45H7.61a.45.45,0,0,0,.45-.45A1.35,1.35,0,0,1,9,17.62v1.27a.45.45,0,0,0,.45.45m8.5-5.64H14.32V11.91h1.34a.45.45,0,0,0,.45-.45,2.23,2.23,0,0,0-1.79-2.19V8.06H17.9ZM7.21,18.44H5.37V11.91H6.71a.45.45,0,1,0,0-.9H5.37V8.06H9V11H8.5a.45.45,0,0,0,0,.9h.9a.45.45,0,0,0,.45-.45V8.06h3.58V9.67a.44.44,0,0,0,.44.44,1.34,1.34,0,0,1,1.27.9H13.87a.45.45,0,0,0-.44.45V13.7h-4a.45.45,0,1,0,0,.89h2.24v3.85H9.85V17.1a.45.45,0,0,0-.45-.45,2.23,2.23,0,0,0-2.19,1.79"/><path class="cls-1" d="M.89.45V4a.45.45,0,0,0,.45.45h17.9A.45.45,0,0,0,19.69,4V.45A.45.45,0,0,0,19.24,0H1.34A.45.45,0,0,0,.89.45m.9.45h17V3.58h-.9V2.24a.45.45,0,1,0-.89,0V3.58h-.9V3.13a.45.45,0,0,0-.89,0v.45h-.9V2.24a.45.45,0,1,0-.89,0V3.58h-.9V3.13a.45.45,0,0,0-.89,0v.45h-.9V2.24a.45.45,0,1,0-.89,0V3.58H9V3.13a.45.45,0,0,0-.89,0v.45h-.9V2.24a.45.45,0,1,0-.89,0V3.58h-.9V3.13a.45.45,0,0,0-.89,0v.45h-.9V2.24a.45.45,0,1,0-.89,0V3.58h-.9Z"/><path class="cls-1" d="M20.59,5.82a.45.45,0,0,0-.45-.45H2.24A2.24,2.24,0,0,0,0,7.61V20.68a2.23,2.23,0,0,0,2.24,2.23h.89a.45.45,0,0,0,.45-.44V21.12h6.49a.45.45,0,1,0,0-.89H3.58V9.4A.45.45,0,0,0,3.13,9H2.24a1.34,1.34,0,0,1,0-2.68H19.69v14H14.1a.45.45,0,1,0,0,.89h6a.45.45,0,0,0,.45-.44Zm-18.35,4h.45V22H2.24A1.34,1.34,0,0,1,.9,20.68V9.4a2.21,2.21,0,0,0,1.34.45"/><path class="cls-1" d="M12.08,20.23a.45.45,0,0,1,.45.45.45.45,0,1,1-.89,0,.45.45,0,0,1,.44-.45"/></g></g></svg>