<svg xmlns="http://www.w3.org/2000/svg" viewBox="0 0 27.2 27.2"><defs><style>.cls-1{fill:#f1f1f0;}</style></defs><title>Recurso 3</title><g id="Capa_2" data-name="Capa 2"><g id="Capa_1-2" data-name="Capa 1"><path class="cls-1" d="M25.84,12.7h-.9v-.46a1.37,1.37,0,0,0-1.36-1.36H17.23a1.36,1.36,0,0,0-1.36,1.36v.46H3.17V3.63a2.72,2.72,0,0,1,5.41-.41A2.72,2.72,0,0,0,6.35,5.9v.45a.45.45,0,0,0,.45.45h4.53a.46.46,0,0,0,.46-.45V5.9a2.73,2.73,0,0,0-2.3-2.69,3.62,3.62,0,0,0-7.22.42V12.7H1.36a1.35,1.35,0,0,0-.45,2.63V19A6.34,6.34,0,0,0,6.8,25.37v.47a1.36,1.36,0,1,0,2.72,0v-.45h8.16v.45a1.36,1.36,0,0,0,2.72,0v-.47A6.36,6.36,0,0,0,26.3,19V15.33a1.35,1.35,0,0,0-.46-2.63m-15-6.8H7.25a1.82,1.82,0,1,1,3.63,0m12.24,6.8v-.46a.46.46,0,0,1,.46-.45.45.45,0,0,1,.45.45v.46Zm-6.35-.46a.46.46,0,0,1,.46-.45H22.3a1.38,1.38,0,0,0-.08.45v5H18.14a.46.46,0,0,0-.46.45.47.47,0,0,0,.46.46h4.08V19H16.77ZM8.61,25.84a.45.45,0,1,1-.9,0v-.45h.9Zm10.89,0a.47.47,0,0,1-.46.46.46.46,0,0,1-.45-.46v-.45h.91ZM20,24.48H7.25A5.45,5.45,0,0,1,1.81,19V15.41H13.6a.45.45,0,0,0,0-.9H1.36A.43.43,0,0,1,1,14.37a.42.42,0,0,1-.13-.32.45.45,0,0,1,.45-.45H15.87V19a.89.89,0,0,0,.45.78v1a.46.46,0,0,0,.91,0V20h.91v.91a.45.45,0,1,0,.9,0V20H20v.91a.45.45,0,0,0,.45.45.46.46,0,0,0,.46-.45V20h.9v.91a.46.46,0,0,0,.46.45.45.45,0,0,0,.45-.45v-1a.89.89,0,0,0,.45-.78V15.41h2.27V19A5.44,5.44,0,0,1,20,24.48m5.89-10H23.12V13.6h2.72a.46.46,0,0,1,.46.45.46.46,0,0,1-.46.46"/><path class="cls-1" d="M9.52,8.16a.45.45,0,0,0-.45-.45.46.46,0,0,0-.46.45v.45a.46.46,0,0,0,.46.46.45.45,0,0,0,.45-.46Z"/><path class="cls-1" d="M9.07,10a.47.47,0,0,0-.46.46v.45a.46.46,0,0,0,.46.45.45.45,0,0,0,.45-.45v-.45A.46.46,0,0,0,9.07,10"/><path class="cls-1" d="M7.47,7.33l-.31.32a.45.45,0,0,0,0,.64.46.46,0,0,0,.65,0L8.12,8a.45.45,0,1,0-.65-.63"/><path class="cls-1" d="M5.89,8.94l-.32.33a.45.45,0,1,0,.65.63l.32-.32a.46.46,0,0,0-.65-.64"/><path class="cls-1" d="M10,7.32A.46.46,0,0,0,10,8l.32.32a.45.45,0,0,0,.44.13A.46.46,0,0,0,11,7.65l-.32-.32a.43.43,0,0,0-.32-.14.44.44,0,0,0-.32.13"/><path class="cls-1" d="M11.6,9.58l.32.32a.41.41,0,0,0,.43.12.47.47,0,0,0,.33-.31.45.45,0,0,0-.12-.44l-.31-.33a.46.46,0,0,0-.64,0,.45.45,0,0,0,0,.64"/><path class="cls-1" d="M8.61,22.67H7.25A3.62,3.62,0,0,1,3.63,19a.46.46,0,0,0-.46-.45.45.45,0,0,0-.45.45,4.54,4.54,0,0,0,4.53,4.54H8.61a.47.47,0,0,0,.46-.46.46.46,0,0,0-.46-.45"/><path class="cls-1" d="M3.17,17.68a.46.46,0,0,0,.46-.45v-.45a.47.47,0,0,0-.46-.46.46.46,0,0,0-.45.46v.45a.45.45,0,0,0,.45.45"/></g></g></svg>